<svg xmlns="http://www.w3.org/2000/svg" viewBox="0 0 1600 1000" width="1600" height="1000"><rect width="1600" height="1000" fill="#0e0e13"/><rect x="0" y="0" width="1600" height="64" fill="#17171c"/><circle cx="40" cy="32" r="8" fill="#2e2e35"/><circle cx="68" cy="32" r="8" fill="#2e2e35"/><circle cx="96" cy="32" r="8" fill="#2e2e35"/><rect x="132" y="18" width="620" height="28" rx="14" fill="#0a0a0d"/><rect x="152" y="28" width="240" height="8" rx="4" fill="#c08a3e" opacity="0.55"/><rect x="1" y="63" width="1598" height="1" fill="#2e2e35"/><rect x="0" y="64" width="1600" height="420" fill="#131318"/><rect x="300" y="150" width="1000" height="44" rx="8" fill="#43434b"/><rect x="380" y="220" width="840" height="18" rx="9" fill="#2e2e35"/><rect x="460" y="256" width="680" height="18" rx="9" fill="#2e2e35"/><rect x="660" y="326" width="280" height="56" rx="10" fill="#c08a3e"/><rect x="140" y="560" width="380" height="300" rx="12" fill="#17171c" stroke="#2e2e35"/><circle cx="190" cy="620" r="22" fill="#c08a3e" opacity="0.3"/><rect x="170" y="672" width="300" height="10" rx="5" fill="#2e2e35"/><rect x="170" y="698" width="300" height="10" rx="5" fill="#2e2e35"/><rect x="170" y="724" width="300" height="10" rx="5" fill="#2e2e35"/><rect x="170" y="750" width="180" height="10" rx="5" fill="#2e2e35"/><rect x="580" y="560" width="380" height="300" rx="12" fill="#17171c" stroke="#2e2e35"/><circle cx="630" cy="620" r="22" fill="#c08a3e" opacity="0.3"/><rect x="610" y="672" width="300" height="10" rx="5" fill="#2e2e35"/><rect x="610" y="698" width="300" height="10" rx="5" fill="#2e2e35"/><rect x="610" y="724" width="300" height="10" rx="5" fill="#2e2e35"/><rect x="610" y="750" width="180" height="10" rx="5" fill="#2e2e35"/><rect x="1020" y="560" width="380" height="300" rx="12" fill="#17171c" stroke="#2e2e35"/><circle cx="1070" cy="620" r="22" fill="#c08a3e" opacity="0.3"/><rect x="1050" y="672" width="300" height="10" rx="5" fill="#2e2e35"/><rect x="1050" y="698" width="300" height="10" rx="5" fill="#2e2e35"/><rect x="1050" y="724" width="300" height="10" rx="5" fill="#2e2e35"/><rect x="1050" y="750" width="180" height="10" rx="5" fill="#2e2e35"/></svg>